<svg width="114" height="114" viewBox="0 0 114 114" fill="none" xmlns="http://www.w3.org/2000/svg">
<path fill-rule="evenodd" clip-rule="evenodd" d="M57 114C88.4802 114 114 88.4802 114 57C114 25.5198 88.4802 0 57 0C25.5198 0 0 25.5198 0 57C0 88.4802 25.5198 114 57 114ZM87.8823 34.0244H27.2353C26.683 34.0244 26.2353 34.4722 26.2353 35.0244V80.0244C26.2353 80.5767 26.683 81.0244 27.2353 81.0244H87.8823C88.4346 81.0244 88.8823 80.5767 88.8823 80.0244V35.0244C88.8823 34.4722 88.4346 34.0244 87.8823 34.0244ZM27.2353 29.0244C23.9216 29.0244 21.2353 31.7107 21.2353 35.0244V80.0244C21.2353 83.3382 23.9216 86.0244 27.2353 86.0244H87.8823C91.1961 86.0244 93.8823 83.3382 93.8823 80.0244V35.0244C93.8823 31.7107 91.1961 29.0244 87.8823 29.0244H27.2353ZM46.9412 48.3039C46.9412 51.2358 44.5643 53.6127 41.6323 53.6127C38.7004 53.6127 36.3235 51.2358 36.3235 48.3039C36.3235 45.3719 38.7004 42.995 41.6323 42.995C44.5643 42.995 46.9412 45.3719 46.9412 48.3039ZM85.5989 77.0833L68.1765 55.2892L56.2368 70.2248L46.6618 58.6421L31.4172 77.0833L50.7541 77.0833H85.5989Z" fill="white"/>
</svg>
