<svg width="114" height="114" viewBox="0 0 114 114" fill="none" xmlns="http://www.w3.org/2000/svg">
<circle cx="57" cy="57" r="55.5" stroke="white" stroke-width="3"/>
<path fill-rule="evenodd" clip-rule="evenodd" d="M27.2353 34.0244H87.8823C88.4346 34.0244 88.8823 34.4722 88.8823 35.0244V80.0244C88.8823 80.5767 88.4346 81.0244 87.8823 81.0244H27.2353C26.683 81.0244 26.2353 80.5767 26.2353 80.0244V35.0244C26.2353 34.4722 26.683 34.0244 27.2353 34.0244ZM21.2353 35.0244C21.2353 31.7107 23.9216 29.0244 27.2353 29.0244H87.8823C91.1961 29.0244 93.8823 31.7107 93.8823 35.0244V80.0244C93.8823 83.3382 91.1961 86.0244 87.8823 86.0244H27.2353C23.9216 86.0244 21.2353 83.3382 21.2353 80.0244V35.0244ZM41.6323 53.6127C44.5643 53.6127 46.9412 51.2358 46.9412 48.3039C46.9412 45.3719 44.5643 42.995 41.6323 42.995C38.7004 42.995 36.3235 45.3719 36.3235 48.3039C36.3235 51.2358 38.7004 53.6127 41.6323 53.6127ZM68.1765 55.2892L85.5989 77.0833H50.7541L31.4172 77.0833L46.6618 58.6421L56.2368 70.2248L68.1765 55.2892Z" fill="white"/>
</svg>
